<svg width="87" height="28" viewBox="0 0 87 28" fill="none" xmlns="http://www.w3.org/2000/svg">
<path d="M82.434 10.313H86.3985C85.8971 6.45094 83.0789 4.4209 79.1619 4.4209C75.1975 4.4209 72.5465 6.52525 72.5465 10.1397C72.5465 14.2494 75.9617 15.1653 77.7768 15.5368C80.1173 16.0071 82.4101 16.0567 82.4101 18.1362C82.4101 19.5473 81.2637 20.2405 79.6397 20.2405C77.6335 20.2405 76.2962 19.2007 75.9617 17.3193H72.0449C72.2837 21.3794 75.1259 23.558 79.3054 23.558C83.1744 23.558 86.3507 21.726 86.3507 17.7649C86.3507 13.5066 82.6967 12.7392 80.1412 12.3431C78.3977 12.0708 76.4871 11.8232 76.4871 9.9169C76.4871 8.58005 77.4663 7.76311 79.1142 7.76311C81.0249 7.76311 82.1712 8.87723 82.434 10.313Z" fill="#2E2E2E"/>
<path d="M69.8708 5.03906H66.1211V22.9877H69.8708V5.03906Z" fill="#2E2E2E"/>
<path d="M54.8025 16.7245H59.6986C58.9342 18.6556 57.2146 19.5714 55.2323 19.5714C51.7455 19.5714 50.1215 16.774 50.1215 14.0012C50.1215 11.2036 51.6499 8.35667 55.2085 8.35667C57.3819 8.35667 59.0058 9.39645 59.6268 11.2532L63.663 11.2532C62.9705 7.06938 59.4358 4.66797 55.2563 4.66797C50.0976 4.66797 46.2285 8.30712 46.2285 14.0508C46.2285 19.8686 50.4319 23.3098 55.2323 23.3098C59.9612 23.3098 63.663 20.1162 63.663 15.1153V13.6546H54.8025V16.7245Z" fill="#2E2E2E"/>
<path d="M37.6528 4.66797C33.3539 4.66797 30.1774 7.46542 30.2013 12.1197H34.0704C34.0226 10.0897 35.2644 8.23292 37.4617 8.23292C39.3724 8.23292 40.4949 9.61932 40.4949 11.2037C40.4949 12.7881 39.3724 13.6794 37.2945 14.645C34.4524 15.957 32.4225 16.7988 30.3446 17.5415V22.988H44.8177V19.3239H34.8818C34.8818 19.3239 34.9148 19.3132 34.9311 19.3081C36.6211 18.7773 37.8907 18.2006 39.3963 17.5167C42.6204 16.0314 44.4594 14.1745 44.4594 11.0057C44.4594 7.11881 41.689 4.66797 37.6528 4.66797Z" fill="#2E2E2E"/>
<path d="M20.028 16.6751C15.1559 16.6999 14.3677 19.7449 14.1051 22.3196L13.9857 23.4584H13.0064L12.887 22.3196C12.6243 19.7449 11.8123 16.6999 7.10734 16.6751C6.31922 14.9916 5.98486 13.6299 5.98486 12.095C5.98486 8.2578 9.01801 4.66795 13.5079 4.66795C17.9979 4.66795 20.9833 8.2329 20.9833 12.1199C20.9833 13.6299 20.84 14.9916 20.028 16.6751ZM13.4603 0.0136719C6.05657 0.0136719 -0.00976562 6.30196 -0.00976562 14.0012C-0.00976562 21.7254 6.05657 28.0136 13.4603 28.0136C20.9355 28.0136 26.978 21.7254 26.978 14.0012C26.978 6.30198 20.9355 0.0136719 13.4603 0.0136719Z" fill="#29B24A"/>
</svg>
