<svg width="25" height="25" viewBox="0 0 25 25" fill="none" xmlns="http://www.w3.org/2000/svg">
<path d="M8.97 14.9701L4.25 19.6901V16.5001C4.25 16.3012 4.17098 16.1104 4.03033 15.9698C3.88968 15.8291 3.69891 15.7501 3.5 15.7501C3.30109 15.7501 3.11032 15.8291 2.96967 15.9698C2.82902 16.1104 2.75 16.3012 2.75 16.5001V21.5001C2.75053 21.5998 2.77092 21.6984 2.81 21.7901C2.8681 21.9254 2.96424 22.0408 3.08673 22.1225C3.20922 22.2042 3.35279 22.2485 3.5 22.2501H8.5C8.69891 22.2501 8.88968 22.1711 9.03033 22.0304C9.17098 21.8898 9.25 21.699 9.25 21.5001C9.25 21.3012 9.17098 21.1104 9.03033 20.9698C8.88968 20.8291 8.69891 20.7501 8.5 20.7501H5.31L10.03 16.0301C10.1625 15.8879 10.2346 15.6999 10.2312 15.5056C10.2277 15.3113 10.149 15.1259 10.0116 14.9885C9.87421 14.8511 9.68882 14.7723 9.49452 14.7689C9.30022 14.7655 9.11217 14.8376 8.97 14.9701Z" fill="black"/>
<path d="M22.1893 3.21C22.1536 3.11947 22.0997 3.03725 22.0309 2.96844C21.9621 2.89963 21.8799 2.8457 21.7893 2.81C21.6976 2.77092 21.599 2.75053 21.4993 2.75H16.4993C16.3004 2.75 16.1097 2.82902 15.969 2.96967C15.8284 3.11032 15.7493 3.30109 15.7493 3.5C15.7493 3.69891 15.8284 3.88968 15.969 4.03033C16.1097 4.17098 16.3004 4.25 16.4993 4.25H19.6893L14.9693 8.97C14.8289 9.11063 14.75 9.30125 14.75 9.5C14.75 9.69875 14.8289 9.88937 14.9693 10.03C15.11 10.1705 15.3006 10.2493 15.4993 10.2493C15.6981 10.2493 15.8887 10.1705 16.0293 10.03L20.7493 5.31V8.5C20.7493 8.69891 20.8284 8.88968 20.969 9.03033C21.1097 9.17098 21.3004 9.25 21.4993 9.25C21.6983 9.25 21.889 9.17098 22.0297 9.03033C22.1703 8.88968 22.2493 8.69891 22.2493 8.5V3.5C22.2488 3.40031 22.2284 3.30172 22.1893 3.21Z" fill="black"/>
<path d="M21.5008 15.7501C21.3027 15.7527 21.1135 15.8325 20.9734 15.9726C20.8333 16.1127 20.7534 16.302 20.7508 16.5001V19.6901L16.0308 14.9701C15.8886 14.8376 15.7006 14.7655 15.5063 14.7689C15.312 14.7723 15.1266 14.8511 14.9892 14.9885C14.8518 15.1259 14.7731 15.3113 14.7696 15.5056C14.7662 15.6999 14.8383 15.8879 14.9708 16.0301L19.6908 20.7501H16.5008C16.3019 20.7501 16.1111 20.8291 15.9705 20.9698C15.8298 21.1104 15.7508 21.3012 15.7508 21.5001C15.7508 21.699 15.8298 21.8898 15.9705 22.0304C16.1111 22.1711 16.3019 22.2501 16.5008 22.2501H21.5008C21.648 22.2485 21.7916 22.2042 21.9141 22.1225C22.0366 22.0408 22.1327 21.9254 22.1908 21.7901C22.2299 21.6984 22.2503 21.5998 22.2508 21.5001V16.5001C22.2482 16.302 22.1684 16.1127 22.0283 15.9726C21.8882 15.8325 21.6989 15.7527 21.5008 15.7501Z" fill="black"/>
<path d="M5.31 4.25H8.5C8.69891 4.25 8.88968 4.17098 9.03033 4.03033C9.17098 3.88968 9.25 3.69891 9.25 3.5C9.25 3.30109 9.17098 3.11032 9.03033 2.96967C8.88968 2.82902 8.69891 2.75 8.5 2.75H3.5C3.40031 2.75053 3.30172 2.77092 3.21 2.81C3.11947 2.8457 3.03725 2.89963 2.96844 2.96844C2.89963 3.03725 2.8457 3.11947 2.81 3.21C2.77092 3.30172 2.75053 3.40031 2.75 3.5V8.5C2.75 8.69891 2.82902 8.88968 2.96967 9.03033C3.11032 9.17098 3.30109 9.25 3.5 9.25C3.69891 9.25 3.88968 9.17098 4.03033 9.03033C4.17098 8.88968 4.25 8.69891 4.25 8.5V5.31L8.97 10.03C9.11063 10.1705 9.30125 10.2493 9.5 10.2493C9.69875 10.2493 9.88937 10.1705 10.03 10.03C10.1705 9.88937 10.2493 9.69875 10.2493 9.5C10.2493 9.30125 10.1705 9.11063 10.03 8.97L5.31 4.25Z" fill="black"/>
</svg>
