<svg width="20" height="20" viewBox="0 0 20 20" fill="none" xmlns="http://www.w3.org/2000/svg">
<path fill-rule="evenodd" clip-rule="evenodd" d="M4.10811 14.2052L2.16005 1.54911H0.774484C0.672777 1.54911 0.572066 1.52907 0.478102 1.49015C0.384137 1.45123 0.298758 1.39418 0.226841 1.32227C0.154923 1.25035 0.0978753 1.16497 0.0589539 1.07101C0.0200325 0.977043 0 0.876332 0 0.774626C0 0.67292 0.0200325 0.57221 0.0589539 0.478246C0.0978753 0.384281 0.154923 0.298903 0.226841 0.226986C0.298758 0.155069 0.384137 0.0980211 0.478102 0.0590998C0.572066 0.0201785 0.672777 0.000145969 0.774484 0.000145969L2.80819 0.000181949L2.81244 0.000109989C2.99905 -0.00305288 3.18114 0.0620992 3.32376 0.182489C3.47004 0.30511 3.56532 0.477856 3.59108 0.666986L3.9628 3.07529H19.2255C19.3462 3.07529 19.4652 3.1035 19.5731 3.15767C19.681 3.21185 19.7747 3.2905 19.8468 3.38733C19.9189 3.48416 19.9673 3.59651 19.9883 3.71539C20.0092 3.83425 20.0021 3.95644 19.9674 4.07205L16.8923 14.3225C16.8444 14.4822 16.7464 14.6221 16.6128 14.7216C16.4791 14.821 16.3169 14.8748 16.1503 14.8748L4.8911 14.8747L4.88772 14.8748C4.69849 14.8773 4.51485 14.8107 4.37128 14.6874C4.22772 14.5641 4.13415 14.3926 4.10811 14.2052ZM4.20134 4.62426L5.53921 13.3258H15.5741L18.1846 4.62426H4.20134Z" fill="#B8B8B8"/>
<path d="M7.69929 18.2005C7.69929 18.6777 7.5097 19.1355 7.17222 19.4729C6.83474 19.8104 6.37702 20 5.89975 20C5.42249 20 4.96477 19.8104 4.62729 19.4729C4.28981 19.1355 4.10022 18.6777 4.10022 18.2005C4.10022 17.7232 4.28981 17.2655 4.62729 16.928C4.96477 16.5905 5.42249 16.4009 5.89975 16.4009C6.37702 16.4009 6.83474 16.5905 7.17222 16.928C7.5097 17.2655 7.69929 17.7232 7.69929 18.2005Z" fill="#B8B8B8"/>
<path d="M16.9248 18.2005C16.9248 18.6777 16.7352 19.1355 16.3977 19.4729C16.0602 19.8104 15.6025 20 15.1252 20C14.648 20 14.1903 19.8104 13.8528 19.4729C13.5153 19.1355 13.3257 18.6777 13.3257 18.2005C13.3257 17.7232 13.5153 17.2655 13.8528 16.928C14.1903 16.5905 14.648 16.4009 15.1252 16.4009C15.6025 16.4009 16.0602 16.5905 16.3977 16.928C16.7352 17.2655 16.9248 17.7232 16.9248 18.2005Z" fill="#B8B8B8"/>
</svg>
