<svg width="44" height="44" viewBox="0 0 44 44" fill="none" xmlns="http://www.w3.org/2000/svg">
<path d="M17.3179 12.8762L17.3184 12.8762C18.2688 12.8756 19.2062 13.103 20.0512 13.5398L20.4524 12.7638L20.0512 13.5398C20.5443 13.7948 20.9979 14.1169 21.3993 14.4958C21.7368 14.8144 22.2643 14.8145 22.6019 14.496C23.668 13.4903 25.1043 12.8762 26.6821 12.8762C29.9485 12.8762 32.6238 15.5168 32.6238 18.8081C32.6238 21.7531 30.8804 24.5303 28.7177 26.7045C26.5515 28.8823 23.9219 30.4989 22.0644 31.1134C22.0224 31.1273 21.9776 31.1273 21.9356 31.1134L21.6605 31.9453L21.9356 31.1134C20.0781 30.4989 17.4485 28.8823 15.2823 26.7045C13.1196 24.5303 11.3762 21.7531 11.3762 18.8081C11.3762 15.517 14.0516 12.8763 17.3179 12.8762Z" stroke="#B8B8B8" stroke-width="1.75234" stroke-linecap="round" stroke-linejoin="round"/>
</svg>
