<svg width="32" height="32" viewBox="0 0 32 32" fill="none" xmlns="http://www.w3.org/2000/svg">
<path d="M21.25 9V4.30125L26.0275 9.875H22.125C21.8929 9.875 21.6704 9.78281 21.5063 9.61872C21.3422 9.45462 21.25 9.23206 21.25 9ZM22.125 11.625C21.4288 11.625 20.7611 11.3484 20.2688 10.8562C19.7766 10.3639 19.5 9.69619 19.5 9V3.75H8.125C7.42881 3.75 6.76113 4.02656 6.26884 4.51884C5.77656 5.01113 5.5 5.67881 5.5 6.375V25.625C5.5 26.3212 5.77656 26.9889 6.26884 27.4812C6.76113 27.9734 7.42881 28.25 8.125 28.25H23.875C24.5712 28.25 25.2389 27.9734 25.7312 27.4812C26.2234 26.9889 26.5 26.3212 26.5 25.625V11.625H22.125Z" fill="#474954"/>
</svg>
