<svg width="32" height="32" viewBox="0 0 32 32" fill="none" xmlns="http://www.w3.org/2000/svg">
<g clip-path="url(#clip0_4108_5836)">
<path d="M18.1729 19.4298C17.526 19.8611 16.7747 20.089 16 20.089C15.2254 20.089 14.474 19.8611 13.8272 19.4298L3.17311 12.3269C3.114 12.2875 3.05642 12.2464 3 12.2042V23.8431C3 25.1775 4.08291 26.2365 5.39347 26.2365H26.6065C27.9409 26.2365 28.9999 25.1536 28.9999 23.8431V12.2041C28.9434 12.2465 28.8857 12.2876 28.8265 12.3271L18.1729 19.4298Z" fill="#474954"/>
<path d="M4.01816 11.0591L14.6722 18.1621C15.0755 18.431 15.5377 18.5654 15.9999 18.5654C16.4622 18.5654 16.9245 18.4309 17.3278 18.1621L27.9818 11.0591C28.6194 10.6343 29 9.92339 29 9.15609C29 7.83674 27.9266 6.76343 26.6073 6.76343H5.39266C4.07336 6.76348 3 7.83679 3 9.15736C3 9.92339 3.38066 10.6343 4.01816 11.0591Z" fill="#474954"/>
</g>
<defs>
<clipPath id="clip0_4108_5836">
<rect width="26" height="26" fill="white" transform="translate(3 3.5)"/>
</clipPath>
</defs>
</svg>
