<svg width="32" height="32" viewBox="0 0 32 32" fill="none" xmlns="http://www.w3.org/2000/svg">
<g clip-path="url(#clip0_4108_5818)">
<path d="M26.9138 20.566C25.3219 20.566 23.759 20.3171 22.2778 19.8276C21.5521 19.5801 20.6599 19.8071 20.2169 20.2621L17.2935 22.469C13.9031 20.6592 11.8147 18.5715 10.0297 15.2066L12.1716 12.3593C12.7281 11.8035 12.9277 10.9917 12.6886 10.23C12.197 8.7411 11.9473 7.17886 11.9473 5.58636C11.9474 4.43593 11.0115 3.5 9.86109 3.5H5.0863C3.93593 3.5 3 4.43593 3 5.5863C3 18.7725 13.7276 29.5 26.9138 29.5C28.0641 29.5 29.0001 28.5641 29.0001 27.4137V22.6523C29 21.502 28.0641 20.566 26.9138 20.566Z" fill="#474954"/>
</g>
<defs>
<clipPath id="clip0_4108_5818">
<rect width="26" height="26" fill="white" transform="translate(3 3.5)"/>
</clipPath>
</defs>
</svg>
