<svg width="44" height="44" viewBox="0 0 44 44" fill="none" xmlns="http://www.w3.org/2000/svg">
<path d="M32.9464 20.9948L30.0893 13.0781L30.0446 12.9891L29.9911 12.9099C29.9821 12.9 29.9821 12.9 29.9821 12.8901L29.9107 12.8109H29.9018L29.8393 12.7615L29.8214 12.7417L29.7411 12.6922H29.7321L29.6518 12.6625H29.6339L29.5446 12.6427H29.2768L23.7143 13.9688V11.7917C23.7143 11.5817 23.639 11.3803 23.5051 11.2319C23.3711 11.0834 23.1894 11 23 11C22.8106 11 22.6289 11.0834 22.4949 11.2319C22.361 11.3803 22.2857 11.5817 22.2857 11.7917V14.325L16.4196 15.7698H16.3571L16.2679 15.8094H16.25L16.1786 15.849L16.1779 15.8527L16.176 15.856L16.1731 15.8581L16.1696 15.8589L16.0893 15.9281C16.0893 15.9307 16.0883 15.9333 16.0867 15.9351C16.085 15.937 16.0827 15.938 16.0804 15.938L16.0268 16.0073H16.0179C15.9941 16.0321 15.9758 16.0625 15.9643 16.0964L15.9464 16.1161L15.9107 16.2052H15.9018L13.0536 24.1615C13.0186 24.2557 13.0005 24.3565 13 24.4583C13 26.7641 15.1875 27.625 16.5714 27.625C17.9554 27.625 20.1429 26.7641 20.1429 24.4583C20.1424 24.3565 20.1242 24.2557 20.0893 24.1615L17.5446 17.1156L22.2857 15.9479V31.4167H20.8571C20.6677 31.4167 20.486 31.5001 20.3521 31.6485C20.2181 31.797 20.1429 31.9984 20.1429 32.2083C20.1429 32.4183 20.2181 32.6197 20.3521 32.7681C20.486 32.9166 20.6677 33 20.8571 33H25.1429C25.3323 33 25.514 32.9166 25.6479 32.7681C25.7819 32.6197 25.8571 32.4183 25.8571 32.2083C25.8571 31.9984 25.7819 31.797 25.6479 31.6485C25.514 31.5001 25.3323 31.4167 25.1429 31.4167H23.7143V15.5917L28.2589 14.4734L25.9107 20.9948C25.8758 21.089 25.8576 21.1898 25.8571 21.2917C25.8571 23.5974 28.0446 24.4583 29.4286 24.4583C30.8125 24.4583 33 23.5974 33 21.2917C32.9995 21.1898 32.9813 21.089 32.9464 20.9948ZM16.5714 26.0417C15.9018 26.0417 14.5357 25.6854 14.4375 24.5969L16.5714 18.6693L18.7054 24.5969C18.6071 25.6854 17.2411 26.0417 16.5714 26.0417ZM29.4286 22.875C28.7589 22.875 27.3929 22.5188 27.2946 21.4302L29.4286 15.5026L31.5625 21.4302C31.4643 22.5188 30.0982 22.875 29.4286 22.875Z" fill="#B8B8B8"/>
</svg>
