<svg width="40" height="40" viewBox="0 0 40 40" fill="none" xmlns="http://www.w3.org/2000/svg">
<path d="M34.9551 26.25H5.04509C4.58384 19.8538 7.69759 13.86 12.7101 10.8263L13.7663 20.2775C13.8426 20.9637 14.4613 21.4637 15.1463 21.3812C15.8338 21.3037 16.3276 20.6862 16.2501 20L15.0076 8.885C14.9713 8.535 15.0851 8.18375 15.3188 7.925C15.5638 7.655 15.9138 7.5 16.2838 7.5H23.7163C24.0851 7.5 24.4363 7.655 24.6801 7.925C24.9151 8.185 25.0288 8.53 24.9938 8.86375L23.7501 20C23.6726 20.6862 24.1663 21.3038 24.8538 21.38C25.5338 21.46 26.1576 20.9663 26.2338 20.2763L27.2901 10.825C32.3026 13.86 35.4163 19.8538 34.9551 26.25Z" fill="white"/>
<path d="M37.5 30.625C37.5 31.6588 36.6587 32.5 35.625 32.5H4.375C3.34125 32.5 2.5 31.6588 2.5 30.625C2.5 29.5912 3.34125 28.75 4.375 28.75H35.625C36.6587 28.75 37.5 29.5912 37.5 30.625Z" fill="white"/>
</svg>
