<svg width="40" height="40" viewBox="0 0 40 40" fill="none" xmlns="http://www.w3.org/2000/svg">
<g clip-path="url(#clip0_4108_5993)">
<path d="M-21 3H22.1289V6.66667H34.6086L40 19.111V32.3333H32.5442C31.8065 34.4671 29.82 36 27.4902 36C25.1604 36 23.174 34.4671 22.4363 32.3333H0.137932C-0.599789 34.4671 -2.58622 36 -4.91602 36C-6.28816 36 -7.54092 35.4678 -8.49023 34.5951C-9.43955 35.468 -10.6923 36 -12.0645 36C-15.0207 36 -17.4258 33.5327 -17.4258 30.5C-17.4258 28.6527 -16.5325 27.0164 -15.1668 26.0185H-21V3ZM35.463 17.6667L32.2859 10.3333H28.0859V17.6667H35.463ZM27.4902 32.3333C28.4756 32.3333 29.2773 31.5109 29.2773 30.5C29.2773 29.4891 28.4756 28.6667 27.4902 28.6667C26.5048 28.6667 25.7031 29.4891 25.7031 30.5C25.7031 31.5109 26.5048 32.3333 27.4902 32.3333ZM0.445312 28.6667H18.5547V26.0185H0.445312V28.6667ZM-4.91602 32.3333C-3.9306 32.3333 -3.12891 31.5109 -3.12891 30.5C-3.12891 29.4891 -3.9306 28.6667 -4.91602 28.6667C-5.90143 28.6667 -6.70312 29.4891 -6.70312 30.5C-6.70312 31.5109 -5.90143 32.3333 -4.91602 32.3333ZM-12.0645 32.3333C-11.079 32.3333 -10.2773 31.5109 -10.2773 30.5C-10.2773 29.4891 -11.079 28.6667 -12.0645 28.6667C-13.0499 28.6667 -13.8516 29.4891 -13.8516 30.5C-13.8516 31.5109 -13.0499 32.3333 -12.0645 32.3333Z" fill="#48494F"/>
</g>
<defs>
<clipPath id="clip0_4108_5993">
<rect width="40" height="40" fill="white"/>
</clipPath>
</defs>
</svg>
