<svg width="60" height="60" viewBox="0 0 60 60" fill="none" xmlns="http://www.w3.org/2000/svg">
<path fill-rule="evenodd" clip-rule="evenodd" d="M13.5692 29.6881C22.3156 25.8897 28.1382 23.3658 31.062 22.1413C39.3835 18.6677 41.1328 18.068 42.2573 18.043C42.5072 18.043 43.057 18.0929 43.4318 18.3928C43.7317 18.6427 43.8066 18.9676 43.8566 19.2175C43.9066 19.4674 43.9566 19.9922 43.9066 20.392C43.4568 25.14 41.5076 36.6602 40.508 41.958C40.0832 44.2071 39.2585 44.9568 38.4589 45.0317C36.7096 45.1817 35.3852 43.8822 33.7108 42.7827C31.062 41.0584 29.5876 39.9838 27.0136 38.2845C24.0399 36.3353 25.9641 35.2608 27.6634 33.5115C28.1132 33.0617 35.785 26.0646 35.9349 25.4399C35.9599 25.3649 35.9599 25.065 35.785 24.9151C35.6101 24.7652 35.3602 24.8151 35.1602 24.8651C34.8854 24.9151 30.6871 27.7139 22.5155 33.2366C21.316 34.0613 20.2415 34.4611 19.2669 34.4361C18.1923 34.4111 16.1432 33.8364 14.5938 33.3366C12.7196 32.7368 11.2202 32.412 11.3452 31.3624C11.4201 30.8126 12.1698 30.2629 13.5692 29.6881Z" fill="#2E2E2E"/>
</svg>
