<svg width="62" height="61" viewBox="0 0 62 61" fill="none" xmlns="http://www.w3.org/2000/svg">
<path fill-rule="evenodd" clip-rule="evenodd" d="M32.1496 0.361216C31.4583 -0.120405 30.5401 -0.120406 29.8488 0.361215L21.5568 6.13782C21.3184 6.30396 21.0467 6.41647 20.7606 6.46762L10.8126 8.24625C9.98324 8.39454 9.334 9.04379 9.1857 9.87319L7.40707 19.8212C7.35592 20.1073 7.24341 20.3789 7.07728 20.6174L1.30067 28.9093C0.819048 29.6007 0.819047 30.5189 1.30067 31.2102L7.07728 39.5022C7.24341 39.7406 7.35592 40.0123 7.40707 40.2984L9.1857 50.2464C9.334 51.0758 9.98324 51.725 10.8126 51.8733L20.7606 53.6519C21.0467 53.7031 21.3184 53.8156 21.5568 53.9817L29.8488 59.7583C30.5401 60.24 31.4583 60.24 32.1496 59.7583L40.4416 53.9817C40.6801 53.8156 40.9517 53.7031 41.2378 53.6519L51.1858 51.8733C52.0152 51.725 52.6645 51.0758 52.8127 50.2464L54.5914 40.2984C54.6425 40.0123 54.755 39.7406 54.9212 39.5022L60.6978 31.2102C61.1794 30.5189 61.1794 29.6007 60.6978 28.9094L54.9212 20.6174C54.755 20.3789 54.6425 20.1073 54.5914 19.8212L52.8127 9.87319C52.6645 9.04379 52.0152 8.39454 51.1858 8.24625L41.2378 6.46762C40.9517 6.41647 40.6801 6.30396 40.4416 6.13782L32.1496 0.361216ZM32.0878 3.37997C31.3965 2.89835 30.4783 2.89835 29.787 3.37997L22.4846 8.46714C22.2462 8.63328 21.9745 8.74579 21.6884 8.79694L12.9277 10.3633C12.0983 10.5116 11.4491 11.1608 11.3008 11.9902L9.73444 20.7509C9.68329 21.037 9.57078 21.3087 9.40464 21.5471L4.31747 28.8495C3.83585 29.5408 3.83585 30.459 4.31747 31.1503L9.40464 38.4526C9.57078 38.6911 9.68329 38.9627 9.73444 39.2488L11.3008 48.0095C11.4491 48.8389 12.0983 49.4882 12.9277 49.6365L21.6884 51.2028C21.9745 51.254 22.2462 51.3665 22.4846 51.5326L29.787 56.6198C30.4783 57.1014 31.3965 57.1014 32.0878 56.6198L39.3901 51.5326C39.6286 51.3665 39.9002 51.254 40.1863 51.2028L48.947 49.6365C49.7764 49.4882 50.4257 48.8389 50.574 48.0095L52.1403 39.2488C52.1915 38.9627 52.304 38.6911 52.4701 38.4526L57.5573 31.1503C58.0389 30.459 58.0389 29.5408 57.5573 28.8495L52.4701 21.5471C52.304 21.3087 52.1915 21.037 52.1403 20.7509L50.574 11.9902C50.4257 11.1608 49.7764 10.5116 48.947 10.3633L40.1863 8.79694C39.9002 8.74579 39.6286 8.63328 39.3901 8.46714L32.0878 3.37997Z" fill="#4BBD72"/>
<path d="M29.7866 3.38006C30.4779 2.89843 31.3961 2.89844 32.0874 3.38006L39.3897 8.46723C39.6282 8.63336 39.8998 8.74587 40.1859 8.79703L48.9466 10.3634C49.776 10.5117 50.4253 11.1609 50.5736 11.9903L52.1399 20.751C52.1911 21.0371 52.3036 21.3087 52.4697 21.5472L57.5569 28.8495C58.0385 29.5409 58.0385 30.4591 57.5569 31.1504L52.4697 38.4527C52.3036 38.6912 52.1911 38.9628 52.1399 39.2489L50.5736 48.0096C50.4253 48.839 49.776 49.4883 48.9466 49.6366L40.1859 51.2029C39.8998 51.2541 39.6282 51.3666 39.3897 51.5327L32.0874 56.6199C31.3961 57.1015 30.4779 57.1015 29.7866 56.6199L22.4842 51.5327C22.2458 51.3666 21.9741 51.2541 21.688 51.2029L12.9273 49.6366C12.0979 49.4883 11.4487 48.839 11.3004 48.0096L9.73404 39.2489C9.68288 38.9628 9.57037 38.6912 9.40424 38.4527L4.31707 31.1504C3.83545 30.4591 3.83545 29.5409 4.31707 28.8495L9.40424 21.5472C9.57037 21.3087 9.68288 21.0371 9.73404 20.751L11.3004 11.9903C11.4487 11.1609 12.0979 10.5117 12.9273 10.3634L21.688 8.79703C21.9741 8.74587 22.2458 8.63336 22.4842 8.46723L29.7866 3.38006Z" fill="#4BBD72" fill-opacity="0.1"/>
<path d="M22.6348 28.717L29.2459 35.717L39.6348 24.717" stroke="#4BBD72" stroke-width="2.51572" stroke-linecap="round" stroke-linejoin="round"/>
</svg>
