<svg width="16" height="14" viewBox="0 0 16 14" fill="none" xmlns="http://www.w3.org/2000/svg">
<path d="M15.8592 12.3144L8.8395 0.672855C8.66209 0.378637 8.34356 0.19873 7.99997 0.19873C7.65637 0.19873 7.33784 0.378605 7.16044 0.672855L0.140811 12.3144C-0.0417515 12.6172 -0.0471578 12.9948 0.126717 13.3027C0.300592 13.6105 0.626748 13.8009 0.980311 13.8009H15.0197C15.3732 13.8009 15.6994 13.6105 15.8732 13.3027C16.0471 12.9948 16.0417 12.6172 15.8592 12.3144ZM8.00522 4.22567C8.40837 4.22567 8.7495 4.45311 8.7495 4.85623C8.7495 6.08632 8.60478 7.85401 8.60478 9.08411C8.60478 9.40457 8.25331 9.53892 8.00522 9.53892C7.67447 9.53892 7.39534 9.40454 7.39534 9.08411C7.39534 7.85401 7.25065 6.08632 7.25065 4.85623C7.25065 4.45311 7.5814 4.22567 8.00522 4.22567ZM8.01556 11.8441C7.56075 11.8441 7.21959 11.472 7.21959 11.0482C7.21959 10.614 7.56072 10.2523 8.01556 10.2523C8.43937 10.2523 8.80119 10.614 8.80119 11.0482C8.80119 11.472 8.43937 11.8441 8.01556 11.8441Z" fill="#4BBD72"/>
</svg>
