<svg width="60" height="60" viewBox="0 0 60 60" fill="none" xmlns="http://www.w3.org/2000/svg">
<path d="M13.1422 29.8475C13.1412 32.8166 13.9205 35.7154 15.4018 38.2702L13 47L21.9743 44.6574C24.447 45.9998 27.2308 46.7073 30.064 46.7085H30.0712C39.4008 46.7085 46.9961 39.1495 47 29.8606C47.0016 25.3584 45.242 21.1254 42.0461 17.941C38.8497 14.7566 34.5996 13.0019 30.0712 13C20.7397 13 13.1461 20.5581 13.1422 29.8475ZM18.4862 37.8301L18.1512 37.3003C16.7425 35.0707 15.999 32.4939 16.0001 29.8482C16.0031 22.1274 22.3149 15.8456 30.0762 15.8456C33.8346 15.8471 37.367 17.3058 40.024 19.9523C42.6807 22.5991 44.1426 26.1176 44.1416 29.8592C44.1381 37.5805 37.8262 43.8628 30.0709 43.8628H30.0653C27.5401 43.8613 25.0636 43.1865 22.9038 41.9106L22.3898 41.6073L17.0641 42.9973L18.4862 37.8301Z" fill="#1C1C1C"/>
<path d="M18.4862 37.8301L18.1512 37.3003C16.7425 35.0707 15.999 32.4939 16.0001 29.8482C16.0031 22.1274 22.3149 15.8456 30.0762 15.8456C33.8346 15.8471 37.367 17.3058 40.024 19.9523C42.6807 22.5991 44.1426 26.1176 44.1416 29.8592C44.1381 37.5805 37.8262 43.8628 30.0709 43.8628H30.0653C27.5401 43.8613 25.0636 43.1865 22.9038 41.9106L22.3898 41.6073L17.0641 42.9973L18.4862 37.8301Z" fill="#1C1C1C"/>
<path fill-rule="evenodd" clip-rule="evenodd" d="M25.8846 22.8654C25.5759 22.1703 25.2511 22.1564 24.9575 22.1442C24.7172 22.1339 24.4423 22.1345 24.1678 22.1345C23.893 22.1345 23.4466 22.239 23.0692 22.6566C22.6914 23.0743 21.627 24.0838 21.627 26.1371C21.627 28.1905 23.1036 30.1746 23.3093 30.4533C23.5154 30.7315 26.1598 35.0799 30.3474 36.7526C33.8281 38.1428 34.5363 37.8663 35.2918 37.7966C36.0472 37.7272 37.7296 36.7874 38.0728 35.8129C38.4162 34.8385 38.4162 34.0032 38.3133 33.8288C38.2103 33.6548 37.9355 33.5504 37.5235 33.3418C37.1113 33.1331 35.0857 32.1234 34.7081 31.9841C34.3303 31.845 34.0556 31.7755 33.7808 32.1933C33.5061 32.6106 32.717 33.5504 32.4765 33.8288C32.2362 34.1077 31.9958 34.1425 31.5838 33.9337C31.1716 33.7243 29.8445 33.2841 28.2703 31.8625C27.0454 30.7563 26.2185 29.3902 25.9781 28.9724C25.7378 28.5551 25.9524 28.329 26.159 28.1209C26.3441 27.9339 26.5712 27.6337 26.7773 27.3901C26.9828 27.1464 27.0514 26.9725 27.1887 26.6941C27.3262 26.4155 27.2575 26.1718 27.1545 25.963C27.0514 25.7543 26.251 23.6906 25.8846 22.8654Z" fill="white"/>
</svg>
