<svg width="157" height="28" viewBox="0 0 157 28" fill="none" xmlns="http://www.w3.org/2000/svg">
<path d="M31.3466 22.1725H34.2422V5.56958H30.0235C25.7822 5.56958 23.5594 7.7401 23.5594 10.9431C23.5594 13.498 24.7766 15.0053 26.9616 16.5578L23.1738 22.1725H26.3114L30.5301 15.8871L29.0709 14.9073C27.2942 13.7166 26.4324 12.782 26.4324 10.7773C26.4324 9.00624 27.6798 7.81546 30.0538 7.81546H31.3466V22.1725ZM87.2557 22.4062C88.5788 22.4062 89.5087 22.1725 90.2043 21.6676V19.3539C89.486 19.8513 88.6241 20.1603 87.4296 20.1603C85.3883 20.1603 84.5491 18.5852 84.5491 16.1056C84.5491 13.498 85.5849 12.164 87.4523 12.164C88.5561 12.164 89.6297 12.5409 90.2043 12.9026V10.4909C89.607 10.1518 88.5561 9.91816 87.1423 9.91816C83.4982 9.91816 81.6005 12.5183 81.6005 16.1735C81.6005 20.1904 83.4453 22.4062 87.2557 22.4062ZM69.4283 21.3586V19.0374C68.5437 19.6403 67.0543 20.1603 65.6632 20.1603C63.5766 20.1603 62.7903 19.1881 62.6693 17.1758H69.5493V15.6761C69.5493 11.4933 67.7045 9.91816 64.8467 9.91816C61.3765 9.91816 59.7208 12.5635 59.7208 16.1961C59.7208 20.3789 61.7848 22.4062 65.4289 22.4062C67.2434 22.4062 68.5891 21.9314 69.4283 21.3586ZM78.5386 22.1725H81.7669L77.1928 15.7891L81.2225 10.1518H78.342L74.3199 15.7891V10.1518H71.4621V22.1725H74.3199V16.3619L78.5386 22.1725ZM59.0252 19.9267H57.7551V10.1518H49.4386V11.1843C49.4386 14.116 49.2496 17.9144 48.2441 19.9267H47.352V24.9158H49.9905V22.1725H56.3866V24.9158H59.0252V19.9267ZM43.3072 10.1518V14.9073H39.4967V10.1518H36.6389V22.1725H39.4967V17.1532H43.3072V22.1725H46.1574V10.1518H43.3072ZM64.8013 12.164C66.2151 12.164 66.6461 13.3322 66.6461 14.8395V15.0731H62.6693C62.7449 13.1664 63.4329 12.164 64.8013 12.164ZM54.9048 19.9267H50.8751C51.6689 18.1104 51.8882 14.8395 51.8882 12.7594V12.3977H54.9048V19.9267ZM105.091 22.1725H108.47L102.55 13.4528L107.918 5.56958H104.97L99.8135 13.2116V5.56958H96.9179V22.1725H99.8135V14.3798L105.091 22.1725ZM118.2 13.9728C118.2 11.0637 116.711 9.96337 113.694 9.96337C111.804 9.96337 110.315 10.5588 109.453 11.0637V13.4302C110.217 12.8499 111.895 12.2319 113.362 12.2319C114.723 12.2319 115.35 12.7067 115.35 14.003V14.6662H114.889C110.527 14.6662 108.591 16.1056 108.591 18.5399C108.591 20.9742 110.073 22.3383 112.281 22.3383C113.959 22.3383 114.677 21.7882 115.229 21.2154H115.35C115.373 21.5244 115.471 21.9314 115.562 22.1725H118.344C118.246 21.1928 118.2 20.213 118.2 19.2333V13.9728ZM115.35 19.3011C114.987 19.8287 114.314 20.2583 113.309 20.2583C112.114 20.2583 111.509 19.5875 111.509 18.5625C111.509 17.1984 112.492 16.701 114.942 16.701H115.35V19.3011ZM123.137 10.1518H120.499V25.6318H123.349V20.7632C124.075 21.8334 125.126 22.4062 126.351 22.4062C129.125 22.4062 131.046 20.1904 131.046 16.1509C131.046 12.1339 129.178 9.91816 126.494 9.91816C125.148 9.91816 124.045 10.5361 123.281 11.7043L123.137 10.1518ZM125.632 20.1603C124.12 20.1603 123.349 18.9469 123.349 16.1735C123.349 13.3774 124.166 12.164 125.776 12.164C127.333 12.164 128.097 13.3774 128.097 16.1509C128.097 18.9469 127.28 20.1603 125.632 20.1603ZM141.086 12.3977V10.1518H131.522V12.3977H134.879V22.1725H137.729V12.3977H141.086ZM142.764 10.1518V22.1725H147.104C149.909 22.1725 151.897 20.7406 151.897 17.9144C151.897 15.2389 150.12 13.8296 147.149 13.8296H145.614V10.1518H142.764ZM152.948 10.1518V22.1725H155.806V10.1518H152.948ZM146.937 19.9267H145.614V16.0755H147.006C148.23 16.0755 148.949 16.6257 148.949 18.0124C148.949 19.3991 148.155 19.9267 146.937 19.9267Z" fill="#2E2E2E"/>
<g clip-path="url(#clip0_4108_5919)">
<path d="M9.07193 4.89966C5.31389 4.89966 2.26758 7.93635 2.26758 11.6825C2.26758 13.5549 3.02865 15.2503 4.25955 16.4777C5.4908 17.7057 8.3915 19.4828 8.5616 21.3481C8.58711 21.6278 8.79023 21.8568 9.07193 21.8568C9.35363 21.8568 9.55675 21.6278 9.58226 21.3481C9.75237 19.4828 12.6531 17.7057 13.8843 16.4777C15.1152 15.2503 15.8763 13.5549 15.8763 11.6825C15.8763 7.93635 12.83 4.89966 9.07193 4.89966Z" fill="#FF4433"/>
<path d="M9.07293 14.0559C10.3882 14.0559 11.4544 12.993 11.4544 11.6819C11.4544 10.3707 10.3882 9.30786 9.07293 9.30786C7.75766 9.30786 6.69141 10.3707 6.69141 11.6819C6.69141 12.993 7.75766 14.0559 9.07293 14.0559Z" fill="white"/>
</g>
<defs>
<clipPath id="clip0_4108_5919">
<rect width="18.1449" height="18.0877" fill="white" transform="translate(0 3.7688)"/>
</clipPath>
</defs>
</svg>
