<svg width="36" height="26" viewBox="0 0 36 26" fill="none" xmlns="http://www.w3.org/2000/svg">
<path d="M18.0573 0L26.724 4.33333L18.0573 8.66667L9.39062 4.33333L18.0573 0Z" fill="#D94744"/>
<path d="M18.0573 8.66683V11.5557L26.724 7.22238V4.3335L18.0573 8.66683Z" fill="#882523"/>
<path d="M9.39062 4.3335V7.22238L18.0573 11.5557V8.66683L9.39062 4.3335Z" fill="#AB3734"/>
<path d="M18.0573 14.4443L26.724 18.7777L18.0573 23.111L9.39062 18.7777L18.0573 14.4443Z" fill="#E5C23D"/>
<path d="M18.0573 23.1112V26.0001L26.724 21.6667V18.7778L18.0573 23.1112Z" fill="#AC912D"/>
<path d="M9.39062 18.7778V21.6667L18.0573 26.0001V23.1112L9.39062 18.7778Z" fill="#C8A934"/>
<path d="M9.38737 7.22168L18.054 11.555L9.38737 15.8883L0.720703 11.555L9.38737 7.22168Z" fill="#42BE23"/>
<path d="M9.38737 15.8885V18.7774L18.054 14.4441V11.5552L9.38737 15.8885Z" fill="#2E8717"/>
<path d="M0.720703 11.5552V14.4441L9.38737 18.7774V15.8885L0.720703 11.5552Z" fill="#35A11A"/>
<path d="M26.7253 7.22168L35.3919 11.555L26.7253 15.8883L18.0586 11.555L26.7253 7.22168Z" fill="#2B67AE"/>
<path d="M26.7253 15.8885V18.7774L35.3919 14.4441V11.5552L26.7253 15.8885Z" fill="#1F4B7F"/>
<path d="M18.0586 11.5552V14.4441L26.7253 18.7774V15.8885L18.0586 11.5552Z" fill="#275E9F"/>
</svg>
